<svg width="54" height="22" viewBox="0 0 54 22" fill="none" xmlns="http://www.w3.org/2000/svg">
<path d="M0.0904509 17.1336C-1.38154e-06 17.0322 0 17.0322 0 16.9308C0.0904523 16.9308 0.0904509 17.0322 0.0904509 17.1336Z" fill="black"/>
<path d="M0.0904509 17.1336C-1.38154e-06 17.0323 0 17.0323 0 16.9309C0.0904523 16.9309 0.0904509 17.0323 0.0904509 17.1336ZM50.6533 1.11521H49.4774V0.81106C49.4774 0.40553 49.206 0 48.7538 0C48.392 0 48.0301 0.304147 48.0301 0.81106V1.11521H41.3367V0.81106C41.3367 0.40553 41.0653 0 40.6131 0C40.2513 0 39.8894 0.304147 39.8894 0.81106V1.11521H38.7136C37.4472 1.11521 36.4523 2.23041 36.4523 3.64977V16.9309C36.4523 18.3502 37.4472 19.4654 38.7136 19.4654H41.3367C41.6985 19.4654 42.0603 19.1613 42.0603 18.6544C42.0603 18.2488 41.7889 17.8433 41.3367 17.8433H38.7136C38.1708 17.8433 37.809 17.3364 37.809 16.8295V6.89401C37.809 6.58986 38.1708 6.18433 38.7136 6.18433H50.6533C51.196 6.18433 51.5578 6.58986 51.5578 6.89401V8.71889C51.5578 9.12442 51.8291 9.52995 52.2814 9.52995C52.6432 9.52995 53.005 9.22581 53.005 8.71889V3.64977C52.9146 2.23041 51.9196 1.11521 50.6533 1.11521ZM51.5578 4.86636C51.2864 4.76498 50.9246 4.66359 50.6533 4.66359H38.7136C38.3518 4.66359 38.0804 4.76498 37.809 4.86636V3.64977C37.809 3.04147 38.2613 2.63594 38.7136 2.63594H39.8894V3.14286C39.8894 3.54839 40.1608 3.95392 40.6131 3.95392C40.9749 3.95392 41.3367 3.64977 41.3367 3.14286V2.63594H48.1206V3.14286C48.1206 3.54839 48.392 3.95392 48.8442 3.95392C49.206 3.95392 49.5678 3.64977 49.5678 3.14286V2.63594H50.6533C51.196 2.63594 51.5578 3.14286 51.5578 3.64977V4.86636Z" fill="black"/>
<path d="M48.392 9.42859C45.3166 9.42859 42.7839 12.2673 42.7839 15.7143C42.7839 19.1613 45.3166 22 48.392 22C51.4674 22 54 19.1613 54 15.7143C54 12.2673 51.4674 9.42859 48.392 9.42859ZM48.392 20.5807C46.0402 20.5807 44.1407 18.4516 44.1407 15.8157C44.1407 13.1797 46.0402 11.0507 48.392 11.0507C50.7437 11.0507 52.6432 13.1797 52.6432 15.8157C52.6432 18.3502 50.7437 20.5807 48.392 20.5807Z" fill="black"/>
<path d="M51.4673 17.8433C51.3769 18.0461 51.1055 18.2488 50.9246 18.2488C50.8342 18.2488 50.6533 18.2488 50.5628 18.1475L47.7588 16.1198V13.0783C47.7588 12.6728 48.0301 12.2673 48.4824 12.2673C48.8442 12.2673 49.206 12.5714 49.206 13.0783V15.3087L51.3769 16.8295C51.5578 17.0323 51.6482 17.4378 51.4673 17.8433Z" fill="black"/>
</svg>
