<svg width="32" height="32" viewBox="0 0 32 32" fill="none" xmlns="http://www.w3.org/2000/svg">
<g filter="url(#filter0_d)">
<rect width="24" height="24" transform="translate(4)" fill="black" fill-opacity="0.2"/>
<path d="M26.46 7.57002L16.357 2.11502C16.134 1.99502 15.867 1.99502 15.644 2.11502L5.54299 7.57002C5.17899 7.76702 5.04299 8.22202 5.23999 8.58702C5.37499 8.83702 5.63399 8.98002 5.89999 8.98002C6.01999 8.98002 6.14299 8.95002 6.25599 8.89002L7.07099 8.45002L8.69999 19.963C8.91399 21.178 10.008 22.025 11.358 22.025H20.64C21.992 22.025 23.085 21.177 23.303 19.938L24.929 8.44802L25.747 8.89002C26.111 9.08302 26.567 8.95002 26.764 8.58602C26.96 8.22302 26.824 7.76802 26.46 7.57002ZM21.822 19.703C21.715 20.309 21.119 20.525 20.642 20.525H11.36C10.88 20.525 10.285 20.309 10.182 19.727L8.47999 7.69002L16 3.62802L23.522 7.68802L21.822 19.703Z" fill="black"/>
<path d="M12.22 12.184C12.22 14.268 13.915 15.964 16 15.964C18.085 15.964 19.78 14.268 19.78 12.184C19.78 10.1 18.085 8.40402 16 8.40402C13.915 8.40402 12.22 10.1 12.22 12.184ZM18.28 12.184C18.28 13.442 17.258 14.464 16 14.464C14.742 14.464 13.72 13.442 13.72 12.184C13.72 10.926 14.742 9.90402 16 9.90402C17.258 9.90402 18.28 10.926 18.28 12.184Z" fill="black"/>
</g>
<defs>
<filter id="filter0_d" x="0" y="0" width="32" height="32" filterUnits="userSpaceOnUse" color-interpolation-filters="sRGB">
<feFlood flood-opacity="0" result="BackgroundImageFix"/>
<feColorMatrix in="SourceAlpha" type="matrix" values="0 0 0 0 0 0 0 0 0 0 0 0 0 0 0 0 0 0 127 0" result="hardAlpha"/>
<feOffset dy="4"/>
<feGaussianBlur stdDeviation="2"/>
<feComposite in2="hardAlpha" operator="out"/>
<feColorMatrix type="matrix" values="0 0 0 0 0 0 0 0 0 0 0 0 0 0 0 0 0 0 0.25 0"/>
<feBlend mode="normal" in2="BackgroundImageFix" result="effect1_dropShadow"/>
<feBlend mode="normal" in="SourceGraphic" in2="effect1_dropShadow" result="shape"/>
</filter>
</defs>
</svg>
