<svg width="248" height="216" viewBox="0 0 248 216" fill="none" xmlns="http://www.w3.org/2000/svg">
<path d="M23.75 51H8.25C7.01 51 6 52.01 6 53.25V68.75C6 69.99 7.01 71 8.25 71H23.75C24.99 71 26 69.99 26 68.75V53.25C26 52.01 24.99 51 23.75 51ZM8.25 52.5H23.75C24.163 52.5 24.5 52.837 24.5 53.25V62.926L20.642 59.068C20.502 58.928 20.312 58.848 20.112 58.848H20.109C19.909 58.848 19.716 58.928 19.577 59.072L15.26 63.456L13.447 61.65C13.307 61.51 13.117 61.43 12.917 61.43C12.724 61.4 12.522 61.51 12.382 61.657L7.5 66.642V53.25C7.5 52.837 7.837 52.5 8.25 52.5ZM7.506 68.78L12.924 63.246L19.206 69.5H8.25C7.848 69.5 7.523 69.178 7.506 68.78ZM23.75 69.5H21.33L16.323 64.513L20.115 60.663L24.5 65.047V68.75C24.5 69.163 24.163 69.5 23.75 69.5Z" fill="black"/>
<path d="M12.868 58.851C13.7196 58.851 14.41 58.1606 14.41 57.309C14.41 56.4574 13.7196 55.767 12.868 55.767C12.0164 55.767 11.326 56.4574 11.326 57.309C11.326 58.1606 12.0164 58.851 12.868 58.851Z" fill="black"/>
<path d="M53 59.5V57.8H48.6V64.2H50.3V62.2H52.3V60.5H50.3V59.5H53ZM45.7 57.8H47.4V64.2H45.7V57.8ZM42.1 59.4C42.5 59.4 43 59.6 43.3 59.9L44.5 58.9C43.9 58.2 43 57.8 42.1 57.8C40.3 57.8 38.9 59.2 38.9 61C38.9 62.8 40.3 64.2 42.1 64.2C43.1 64.2 43.9 63.8 44.5 63.1V60.6H41.7V61.8H42.9V62.4C42.7 62.5 42.4 62.6 42.1 62.6C41.2 62.6 40.5 61.9 40.5 61C40.5 60.2 41.2 59.4 42.1 59.4Z" fill="black"/>
<path d="M54.5 51.02H37.5C36.26 51.02 35.25 52.027 35.25 53.267V68.774C35.25 70.012 36.26 71.02 37.5 71.02H54.5C55.74 71.02 56.75 70.012 56.75 68.774V53.267C56.75 52.027 55.74 51.02 54.5 51.02ZM55.25 68.774C55.25 69.184 54.914 69.52 54.5 69.52H37.5C37.086 69.52 36.75 69.184 36.75 68.774V53.267C36.75 52.855 37.086 52.52 37.5 52.52H54.5C54.914 52.52 55.25 52.855 55.25 53.267V68.774Z" fill="black"/>
<path d="M90.222 58.16H88.888C88.903 58.07 88.916 57.978 88.916 57.883V55.57C88.916 54.59 88.119 53.793 87.138 53.793H73.5V52.358C73.5 51.944 73.164 51.608 72.75 51.608C72.336 51.608 72 51.944 72 52.358V69.83C72 70.245 72.336 70.58 72.75 70.58C73.164 70.58 73.5 70.245 73.5 69.83V68.396H84.056C85.036 68.396 85.834 67.599 85.834 66.619V64.306C85.834 64.211 85.82 64.119 85.806 64.028H90.223C91.203 64.028 92.001 63.23 92.001 62.25V59.94C92.001 58.957 91.204 58.16 90.223 58.16H90.222ZM87.14 55.293C87.292 55.293 87.417 55.417 87.417 55.57V57.88C87.417 58.034 87.292 58.16 87.139 58.16H73.5V55.29H87.14V55.293ZM84.333 64.307V66.619C84.333 66.772 84.208 66.896 84.055 66.896H73.5V64.028H84.056C84.209 64.028 84.333 64.154 84.333 64.308V64.307ZM90.5 62.25C90.5 62.403 90.375 62.527 90.222 62.527H73.5V59.66H90.222C90.375 59.66 90.5 59.784 90.5 59.937V62.25Z" fill="black"/>
<path d="M118 71.75C112.072 71.75 107.25 66.928 107.25 61C107.25 55.072 112.072 50.25 118 50.25C123.928 50.25 128.75 55.072 128.75 61C128.75 66.928 123.928 71.75 118 71.75ZM118 51.75C112.9 51.75 108.75 55.9 108.75 61C108.75 66.1 112.9 70.25 118 70.25C123.1 70.25 127.25 66.1 127.25 61C127.25 55.9 123.1 51.75 118 51.75Z" fill="black"/>
<path d="M118 66.115C116.108 66.115 114.367 65.165 113.344 63.571C113.12 63.223 113.221 62.761 113.57 62.536C113.918 62.31 114.382 62.412 114.606 62.762C115.353 63.924 116.622 64.617 118.001 64.617C119.38 64.617 120.649 63.924 121.397 62.763C121.621 62.413 122.085 62.313 122.433 62.538C122.783 62.762 122.883 63.226 122.659 63.574C121.634 65.168 119.893 66.119 118.001 66.119L118 66.115Z" fill="black"/>
<path d="M120.738 59.936C121.554 59.936 122.216 59.2743 122.216 58.458C122.216 57.6417 121.554 56.98 120.738 56.98C119.922 56.98 119.26 57.6417 119.26 58.458C119.26 59.2743 119.922 59.936 120.738 59.936Z" fill="black"/>
<path d="M115.262 59.936C116.078 59.936 116.74 59.2743 116.74 58.458C116.74 57.6417 116.078 56.98 115.262 56.98C114.446 56.98 113.784 57.6417 113.784 58.458C113.784 59.2743 114.446 59.936 115.262 59.936Z" fill="black"/>
<path d="M23.75 161H8.25C7.01 161 6 159.99 6 158.75V143.25C6 142.01 7.01 141 8.25 141H23.75C24.99 141 26 142.01 26 143.25V158.75C26 159.99 24.99 161 23.75 161ZM8.25 142.5C7.836 142.5 7.5 142.837 7.5 143.25V158.75C7.5 159.163 7.836 159.5 8.25 159.5H23.75C24.164 159.5 24.5 159.163 24.5 158.75V143.25C24.5 142.837 24.164 142.5 23.75 142.5H8.25Z" fill="black"/>
<path d="M21 147.64H11C10.586 147.64 10.25 147.303 10.25 146.89C10.25 146.477 10.586 146.14 11 146.14H21C21.414 146.14 21.75 146.475 21.75 146.89C21.75 147.305 21.414 147.64 21 147.64ZM21 151.75H11C10.586 151.75 10.25 151.414 10.25 151C10.25 150.586 10.586 150.25 11 150.25H21C21.414 150.25 21.75 150.586 21.75 151C21.75 151.414 21.414 151.75 21 151.75ZM16 155.86H11C10.586 155.86 10.25 155.525 10.25 155.11C10.25 154.695 10.586 154.36 11 154.36H16C16.414 154.36 16.75 154.697 16.75 155.11C16.75 155.523 16.414 155.86 16 155.86Z" fill="black"/>
<path d="M82 107.816C83.355 107.816 84.872 107.666 85.84 106.56C86.654 105.63 86.918 104.192 86.646 102.168C86.266 99.343 84.529 97.656 82 97.656C79.471 97.656 77.734 99.343 77.354 102.17C77.082 104.192 77.346 105.63 78.16 106.56C79.128 107.667 80.645 107.816 82 107.816ZM78.84 102.368C79.002 101.168 79.627 99.156 82 99.156C84.373 99.156 84.998 101.169 85.16 102.368C85.367 103.918 85.217 104.995 84.71 105.573C84.255 106.093 83.444 106.316 82 106.316C80.556 106.316 79.745 106.093 79.29 105.573C78.783 104.995 78.633 103.917 78.84 102.368ZM90.28 115.236C89.403 111.71 85.998 109.246 82 109.246C78.002 109.246 74.597 111.71 73.72 115.236C73.548 115.928 73.692 116.636 74.115 117.176C74.523 117.696 75.155 117.996 75.848 117.996H88.152C88.845 117.996 89.477 117.696 89.885 117.176C90.309 116.636 90.452 115.929 90.279 115.236H90.28ZM88.704 116.252C88.578 116.412 88.388 116.498 88.152 116.498H75.848C75.613 116.498 75.422 116.413 75.296 116.252C75.159 116.078 75.116 115.84 75.176 115.598C75.886 112.743 78.693 110.748 82 110.748C85.307 110.748 88.114 112.742 88.824 115.598C88.884 115.84 88.841 116.078 88.704 116.252Z" fill="black"/>
<path d="M119.9 162.5C119.743 162.5 119.588 162.45 119.458 162.356L112 156.928L104.542 162.358C104.314 162.522 104.012 162.548 103.76 162.418C103.51 162.291 103.35 162.033 103.35 161.751V144.6C103.35 143.36 104.36 142.35 105.6 142.35H118.398C119.638 142.35 120.648 143.36 120.648 144.6V161.75C120.648 162.032 120.49 162.29 120.238 162.418C120.132 162.473 120.015 162.5 119.898 162.5H119.9ZM112 155.25C112.155 155.25 112.31 155.298 112.44 155.394L119.15 160.277V144.6C119.15 144.188 118.813 143.85 118.4 143.85H105.6C105.187 143.85 104.85 144.188 104.85 144.6V160.277L111.56 155.394C111.69 155.298 111.845 155.25 112 155.25Z" fill="black"/>
<path d="M186.25 145.018H171.75C170.233 145.018 169 146.252 169 147.77V160.265C169 161.783 170.233 163.018 171.75 163.018H186.25C187.767 163.018 189 161.783 189 160.265V147.77C189 146.252 187.767 145.018 186.25 145.018ZM171.75 146.518H186.25C186.94 146.518 187.5 147.078 187.5 147.768V148.482L179.45 153.849C179.177 154.029 178.824 154.031 178.55 153.847L170.5 148.482V147.768C170.5 147.078 171.06 146.518 171.75 146.518ZM186.25 161.516H171.75C171.06 161.516 170.5 160.956 170.5 160.266V150.24L177.74 155.07C178.123 155.326 178.562 155.454 179 155.454C179.44 155.454 179.877 155.326 180.26 155.071L187.5 150.241V160.263C187.5 160.953 186.94 161.513 186.25 161.513V161.516Z" fill="black"/>
<path d="M159.698 202.536C159.678 202.52 157.558 200.896 157.595 196.506C157.615 193.973 156.783 191.724 155.248 190.172C153.873 188.779 152.011 188.008 150.006 188H149.993C147.989 188.008 146.127 188.78 144.751 190.172C143.217 191.725 142.384 193.974 142.405 196.505C142.442 200.837 140.385 202.472 140.303 202.535C140.043 202.729 139.937 203.065 140.038 203.373C140.139 203.681 140.428 203.888 140.751 203.888H145.245C145.345 206.432 147.433 208.475 150.001 208.475C152.569 208.475 154.656 206.432 154.757 203.888H159.251C159.575 203.888 159.861 203.68 159.963 203.373C160.065 203.066 159.958 202.729 159.698 202.536ZM150.001 206.476C148.535 206.476 147.344 205.329 147.245 203.888H152.757C152.657 205.328 151.467 206.475 150.001 206.475V206.476Z" fill="black"/>
<path d="M187.698 202.538C187.678 202.522 185.558 200.898 185.595 196.508C185.615 193.976 184.783 191.726 183.248 190.173C181.873 188.78 180.011 188.01 178.006 188H177.993C175.989 188.01 174.127 188.78 172.751 190.174C171.217 191.727 170.383 193.976 170.405 196.508C170.442 200.838 168.385 202.475 168.303 202.538C168.043 202.731 167.937 203.068 168.038 203.376C168.14 203.684 168.428 203.891 168.75 203.891H173.67C173.772 206.201 175.667 208.051 178 208.051C180.333 208.051 182.226 206.201 182.327 203.891H187.249C187.571 203.891 187.859 203.685 187.959 203.377C188.062 203.07 187.956 202.732 187.696 202.539L187.698 202.538ZM178.001 206.548C176.496 206.548 175.271 205.371 175.173 203.89H180.829C180.729 205.37 179.506 206.55 178.001 206.55V206.548ZM170.381 202.39C171.121 201.258 171.929 199.362 171.905 196.494C171.887 194.334 172.549 192.512 173.818 191.227C174.911 190.12 176.398 189.507 178.001 189.5C179.604 189.508 181.088 190.12 182.181 191.228C183.451 192.513 184.114 194.334 184.096 196.495C184.072 199.363 184.881 201.26 185.621 202.391H170.381V202.39Z" fill="black"/>
<g filter="url(#filter0_d)">
<rect width="24" height="24" transform="translate(106 184)" fill="black" fill-opacity="0.2"/>
<path d="M126.585 193.468C127.245 193.468 127.785 192.93 127.785 192.268C127.785 191.606 127.245 191.068 126.585 191.068H123.365L123.675 187.521C123.702 187.203 123.605 186.891 123.398 186.646C123.192 186.401 122.903 186.25 122.576 186.221C121.926 186.186 121.341 186.653 121.283 187.314L120.957 191.068H115.9L116.208 187.523C116.268 186.865 115.778 186.281 115.111 186.221C114.446 186.171 113.876 186.651 113.818 187.313L113.493 191.067H110.163C109.5 191.067 108.963 191.605 108.963 192.267C108.963 192.929 109.501 193.467 110.163 193.467H113.285L112.845 198.531H109.416C108.754 198.531 108.216 199.071 108.216 199.731C108.216 200.391 108.754 200.933 109.416 200.933H112.636L112.326 204.481C112.269 205.138 112.758 205.721 113.416 205.781L113.522 205.786C114.148 205.786 114.662 205.314 114.717 204.688L115.044 200.935H120.1L119.792 204.479C119.732 205.137 120.222 205.721 120.882 205.781L120.988 205.786C121.605 205.786 122.13 205.304 122.183 204.688L122.508 200.935H125.838C126.498 200.935 127.038 200.395 127.038 199.735C127.038 199.075 126.498 198.533 125.838 198.533H122.716L123.156 193.469H126.586L126.585 193.468ZM120.747 193.468L120.307 198.531H115.253L115.693 193.469H120.748L120.747 193.468Z" fill="black"/>
</g>
<g filter="url(#filter1_d)">
<rect width="24" height="24" transform="translate(72 183)" fill="black" fill-opacity="0.2"/>
<path d="M93 190.337H89.07L89.442 186.065C89.478 185.653 89.172 185.29 88.76 185.253C88.343 185.223 87.984 185.523 87.948 185.936L87.565 190.336H81.245L81.615 186.066C81.652 185.653 81.345 185.29 80.935 185.253C80.515 185.223 80.158 185.523 80.122 185.936L79.74 190.336H75.782C75.368 190.336 75.032 190.673 75.032 191.086C75.032 191.499 75.368 191.836 75.782 191.836H79.61L79.06 198.163H75C74.586 198.163 74.25 198.499 74.25 198.913C74.25 199.327 74.586 199.663 75 199.663H78.93L78.558 203.935C78.522 204.347 78.828 204.71 79.24 204.747L79.306 204.75C79.691 204.75 80.018 204.455 80.052 204.064L80.435 199.664H86.755L86.385 203.934C86.349 204.347 86.655 204.71 87.067 204.747L87.133 204.75C87.518 204.75 87.845 204.455 87.879 204.064L88.261 199.664H92.218C92.631 199.664 92.968 199.327 92.968 198.914C92.968 198.501 92.631 198.164 92.218 198.164H88.39L88.94 191.837H93C93.414 191.837 93.75 191.501 93.75 191.087C93.75 190.673 93.414 190.337 93 190.337ZM86.885 198.163H80.565L81.115 191.837H87.435L86.885 198.163Z" fill="black"/>
</g>
<g filter="url(#filter2_d)">
<rect width="24" height="24" transform="translate(4 184)" fill="black" fill-opacity="0.2"/>
<path d="M26.58 191.35L16.475 185.897C16.178 185.737 15.821 185.737 15.525 185.897L5.42502 191.35C4.93902 191.614 4.75802 192.22 5.02002 192.706C5.20002 193.041 5.54502 193.231 5.90002 193.231C6.06002 193.231 6.22402 193.193 6.37502 193.111L7.10902 192.715L8.69902 203.965C8.91502 205.179 10.009 206.027 11.359 206.027H20.641C21.991 206.027 23.085 205.179 23.303 203.939L24.891 192.714L25.628 193.112C26.113 193.375 26.72 193.194 26.982 192.708C27.245 192.222 27.062 191.615 26.578 191.353L26.58 191.35ZM16 199.435C14.205 199.435 12.75 197.98 12.75 196.185C12.75 194.39 14.205 192.935 16 192.935C17.795 192.935 19.25 194.39 19.25 196.185C19.25 197.98 17.795 199.435 16 199.435Z" fill="black"/>
</g>
<g filter="url(#filter3_d)">
<rect width="24" height="24" transform="translate(38 183)" fill="black" fill-opacity="0.2"/>
<path d="M60.46 190.57L50.357 185.115C50.134 184.995 49.867 184.995 49.644 185.115L39.543 190.57C39.179 190.767 39.043 191.222 39.24 191.587C39.375 191.837 39.634 191.98 39.9 191.98C40.02 191.98 40.143 191.95 40.256 191.89L41.071 191.45L42.7 202.963C42.914 204.178 44.008 205.025 45.358 205.025H54.64C55.992 205.025 57.085 204.177 57.303 202.938L58.929 191.448L59.747 191.89C60.111 192.083 60.567 191.95 60.764 191.586C60.96 191.223 60.824 190.768 60.46 190.57ZM55.822 202.703C55.715 203.309 55.119 203.525 54.642 203.525H45.36C44.88 203.525 44.285 203.309 44.182 202.727L42.48 190.69L50 186.628L57.522 190.688L55.822 202.703Z" fill="black"/>
<path d="M46.22 195.184C46.22 197.268 47.915 198.964 50 198.964C52.085 198.964 53.78 197.268 53.78 195.184C53.78 193.1 52.085 191.404 50 191.404C47.915 191.404 46.22 193.1 46.22 195.184ZM52.28 195.184C52.28 196.442 51.258 197.464 50 197.464C48.742 197.464 47.72 196.442 47.72 195.184C47.72 193.926 48.742 192.904 50 192.904C51.258 192.904 52.28 193.926 52.28 195.184Z" fill="black"/>
</g>
<g filter="url(#filter4_d)">
<path d="M27.643 98.937C26.808 99.307 25.911 99.557 24.968 99.67C25.93 99.094 26.668 98.18 27.016 97.092C26.116 97.626 25.119 98.014 24.058 98.222C23.208 97.318 21.998 96.752 20.658 96.752C18.086 96.752 16 98.838 16 101.412C16 101.776 16.042 102.13 16.12 102.472C12.247 102.277 8.81601 100.422 6.51801 97.604C6.11801 98.294 5.88801 99.094 5.88801 99.946C5.88801 101.562 6.71101 102.989 7.96001 103.824C7.19601 103.799 6.47801 103.59 5.85001 103.241V103.301C5.85001 105.558 7.45501 107.441 9.58701 107.869C9.19501 107.975 8.78401 108.031 8.36001 108.031C8.06001 108.031 7.76701 108.003 7.48301 107.949C8.07601 109.799 9.79601 111.147 11.835 111.183C10.24 112.433 8.23101 113.178 6.04901 113.178C5.67301 113.178 5.30201 113.156 4.93701 113.113C6.99901 114.436 9.44701 115.206 12.077 115.206C20.647 115.206 25.332 108.108 25.332 101.952C25.332 101.752 25.327 101.55 25.318 101.35C26.228 100.692 27.018 99.873 27.641 98.94L27.643 98.937Z" fill="white"/>
</g>
<path d="M123 105.5C123.828 105.5 124.5 104.828 124.5 104C124.5 103.172 123.828 102.5 123 102.5C122.172 102.5 121.5 103.172 121.5 104C121.5 104.828 122.172 105.5 123 105.5Z" fill="black"/>
<path d="M118 105.5C118.828 105.5 119.5 104.828 119.5 104C119.5 103.172 118.828 102.5 118 102.5C117.172 102.5 116.5 103.172 116.5 104C116.5 104.828 117.172 105.5 118 105.5Z" fill="black"/>
<path d="M113 105.5C113.828 105.5 114.5 104.828 114.5 104C114.5 103.172 113.828 102.5 113 102.5C112.172 102.5 111.5 103.172 111.5 104C111.5 104.828 112.172 105.5 113 105.5Z" fill="black"/>
<path d="M118 114.75C112.072 114.75 107.25 109.928 107.25 104C107.25 98.072 112.072 93.25 118 93.25C123.928 93.25 128.75 98.072 128.75 104C128.75 109.928 123.928 114.75 118 114.75ZM118 94.75C112.9 94.75 108.75 98.9 108.75 104C108.75 109.1 112.9 113.25 118 113.25C123.1 113.25 127.25 109.1 127.25 104C127.25 98.9 123.1 94.75 118 94.75Z" fill="black"/>
<path d="M49.9745 106.161C48.6185 106.161 47.1025 106.011 46.1345 104.905C45.3205 103.975 45.0575 102.537 45.3295 100.513C45.7095 97.687 47.4455 96 49.9755 96C52.5055 96 54.2425 97.687 54.6215 100.513C54.8935 102.537 54.6295 103.973 53.8155 104.905C52.8455 106.011 51.3305 106.16 49.9755 106.16L49.9745 106.161ZM55.8235 116.011H44.1255C43.4625 116.011 42.8755 115.731 42.4755 115.225C42.0535 114.691 41.8995 113.955 42.0655 113.257C42.8995 109.727 46.1515 107.26 49.9735 107.26C53.7955 107.26 57.0475 109.726 57.8835 113.257C58.0475 113.955 57.8935 114.691 57.4715 115.224C57.0715 115.729 56.4865 116.009 55.8235 116.009V116.011Z" fill="black"/>
<path d="M55.75 139H40.25C39.013 139 38 140.013 38 141.25V156.75C38 157.987 39.013 159 40.25 159H55.75C56.987 159 58 157.987 58 156.75V141.25C58 140.013 56.987 139 55.75 139ZM47 153.75H43C42.586 153.75 42.25 153.414 42.25 153C42.25 152.586 42.586 152.25 43 152.25H47C47.414 152.25 47.75 152.586 47.75 153C47.75 153.414 47.414 153.75 47 153.75ZM53 149.75H43C42.586 149.75 42.25 149.414 42.25 149C42.25 148.586 42.586 148.25 43 148.25H53C53.414 148.25 53.75 148.586 53.75 149C53.75 149.414 53.414 149.75 53 149.75ZM53 145.75H43C42.586 145.75 42.25 145.414 42.25 145C42.25 144.586 42.586 144.25 43 144.25H53C53.414 144.25 53.75 144.586 53.75 145C53.75 145.414 53.414 145.75 53 145.75Z" fill="black"/>
<path d="M91.9 160.5C91.7 160.5 91.6 160.5 91.5 160.4L84 154.9L76.5 160.3C76.3 160.5 76 160.5 75.7 160.4C75.5 160.3 75.3 160 75.3 159.7V142.6C75.3 141.4 76.3 140.4 77.5 140.4H90.3C91.5 140.4 92.5 141.4 92.5 142.6V159.7C92.5 160 92.3 160.2 92.1 160.4C92.1 160.5 92 160.5 91.9 160.5Z" fill="black"/>
<path d="M156 23C155.586 23 155.25 22.664 155.25 22.25V3.75C155.25 3.336 155.586 3 156 3C156.414 3 156.75 3.336 156.75 3.75V22.25C156.75 22.664 156.414 23 156 23ZM161.14 23C160.725 23 160.39 22.664 160.39 22.25V8.89C160.39 8.475 160.725 8.14 161.14 8.14C161.555 8.14 161.89 8.475 161.89 8.89V22.25C161.89 22.664 161.553 23 161.14 23ZM150.86 23C150.447 23 150.11 22.664 150.11 22.25V11.973C150.11 11.559 150.447 11.223 150.86 11.223C151.273 11.223 151.61 11.559 151.61 11.973V22.25C151.61 22.664 151.275 23 150.86 23Z" fill="black"/>
<path d="M137.09 70.1336C137 70.0322 137 70.0322 137 69.9308C137.09 69.9308 137.09 70.0322 137.09 70.1336Z" fill="black"/>
<path d="M137.09 70.1336C137 70.0323 137 70.0323 137 69.9309C137.09 69.9309 137.09 70.0323 137.09 70.1336ZM187.653 54.1152H186.477V53.8111C186.477 53.4055 186.206 53 185.754 53C185.392 53 185.03 53.3041 185.03 53.8111V54.1152H178.337V53.8111C178.337 53.4055 178.065 53 177.613 53C177.251 53 176.889 53.3041 176.889 53.8111V54.1152H175.714C174.447 54.1152 173.452 55.2304 173.452 56.6498V69.9309C173.452 71.3502 174.447 72.4654 175.714 72.4654H178.337C178.698 72.4654 179.06 72.1613 179.06 71.6544C179.06 71.2488 178.789 70.8433 178.337 70.8433H175.714C175.171 70.8433 174.809 70.3364 174.809 69.8295V59.894C174.809 59.5899 175.171 59.1843 175.714 59.1843H187.653C188.196 59.1843 188.558 59.5899 188.558 59.894V61.7189C188.558 62.1244 188.829 62.53 189.281 62.53C189.643 62.53 190.005 62.2258 190.005 61.7189V56.6498C189.915 55.2304 188.92 54.1152 187.653 54.1152ZM188.558 57.8664C188.286 57.765 187.925 57.6636 187.653 57.6636H175.714C175.352 57.6636 175.08 57.765 174.809 57.8664V56.6498C174.809 56.0415 175.261 55.6359 175.714 55.6359H176.889V56.1429C176.889 56.5484 177.161 56.9539 177.613 56.9539C177.975 56.9539 178.337 56.6498 178.337 56.1429V55.6359H185.121V56.1429C185.121 56.5484 185.392 56.9539 185.844 56.9539C186.206 56.9539 186.568 56.6498 186.568 56.1429V55.6359H187.653C188.196 55.6359 188.558 56.1429 188.558 56.6498V57.8664Z" fill="black"/>
<path d="M185.392 62.4286C182.317 62.4286 179.784 65.2673 179.784 68.7143C179.784 72.1613 182.317 75 185.392 75C188.467 75 191 72.1613 191 68.7143C191 65.2673 188.467 62.4286 185.392 62.4286ZM185.392 73.5807C183.04 73.5807 181.141 71.4516 181.141 68.8157C181.141 66.1797 183.04 64.0507 185.392 64.0507C187.744 64.0507 189.643 66.1797 189.643 68.8157C189.643 71.3502 187.744 73.5807 185.392 73.5807Z" fill="black"/>
<path d="M188.467 70.8433C188.377 71.0461 188.106 71.2488 187.925 71.2488C187.834 71.2488 187.653 71.2488 187.563 71.1475L184.759 69.1198V66.0783C184.759 65.6728 185.03 65.2673 185.482 65.2673C185.844 65.2673 186.206 65.5714 186.206 66.0783V68.3087L188.377 69.8295C188.558 70.0323 188.648 70.4378 188.467 70.8433Z" fill="black"/>
<path d="M246.022 66.206L240.404 64.014L238.244 57.514C238.142 57.207 237.854 57 237.532 57C237.21 57 236.922 57.207 236.82 57.513L234.66 64.013L229.04 66.205C228.753 66.317 228.563 66.595 228.563 66.905C228.563 67.215 228.753 67.49 229.041 67.603L234.661 69.795L236.821 76.295C236.923 76.601 237.211 76.808 237.533 76.808C237.855 76.808 238.143 76.601 238.245 76.295L240.405 69.795L246.025 67.603C246.312 67.491 246.502 67.213 246.502 66.903C246.502 66.593 246.312 66.318 246.024 66.206H246.022ZM239.532 68.526C239.324 68.606 239.162 68.776 239.092 68.986L237.532 73.681L235.972 68.988C235.902 68.778 235.742 68.608 235.534 68.526L231.379 66.906L235.533 65.284C235.741 65.204 235.903 65.034 235.973 64.822L237.533 60.129L239.093 64.823C239.163 65.035 239.323 65.205 239.531 65.286L243.686 66.906L239.531 68.528L239.532 68.526ZM229.913 59.512H228.033V57.75C228.033 57.336 227.696 57 227.283 57C226.87 57 226.533 57.336 226.533 57.75V59.512H224.75C224.336 59.512 224 59.848 224 60.262C224 60.676 224.336 61.012 224.75 61.012H226.532V62.774C226.532 63.188 226.868 63.524 227.282 63.524C227.696 63.524 228.032 63.188 228.032 62.774V61.012H229.912C230.327 61.012 230.662 60.676 230.662 60.262C230.662 59.848 230.327 59.512 229.912 59.512H229.913ZM232.448 75.134H231.348V74.118C231.348 73.704 231.013 73.368 230.598 73.368C230.183 73.368 229.848 73.704 229.848 74.118V75.134H228.82C228.406 75.134 228.07 75.47 228.07 75.884C228.07 76.298 228.406 76.634 228.82 76.634H229.85V77.65C229.85 78.064 230.185 78.4 230.6 78.4C231.015 78.4 231.35 78.064 231.35 77.65V76.634H232.448C232.862 76.634 233.198 76.298 233.198 75.884C233.198 75.47 232.862 75.134 232.448 75.134Z" fill="black"/>
<path d="M15.95 0.00999999L11.802 0H11.8C7.426 0 4 3.427 4 7.802C4 11.9 7.186 15.008 11.465 15.172V19C11.465 19.108 11.509 19.286 11.585 19.403C11.727 19.628 11.969 19.75 12.217 19.75C12.355 19.75 12.494 19.712 12.619 19.632C12.883 19.464 19.092 15.492 20.707 14.126C22.609 12.516 23.747 10.156 23.75 7.814V7.797C23.744 3.43 20.32 0.00999982 15.95 0.00899982V0.00999999ZM19.737 12.982C18.603 13.942 14.875 16.387 12.965 17.625V14.438C12.965 14.024 12.63 13.688 12.215 13.688H11.819C8.159 13.688 5.501 11.212 5.501 7.802C5.501 4.268 8.269 1.5 11.801 1.5L15.948 1.51H15.95C19.482 1.51 22.25 4.276 22.252 7.806C22.249 9.716 21.31 11.65 19.738 12.982H19.737Z" fill="black"/>
<path d="M57.7585 14.7705C57.4665 14.4775 56.9915 14.4775 56.6985 14.7705L54.4785 16.9905V6.7505C54.4785 4.6825 52.7955 3.0005 50.7285 3.0005H44.8785C44.4645 3.0005 44.1285 3.3365 44.1285 3.7505C44.1285 4.1645 44.4645 4.5005 44.8785 4.5005H50.7285C51.9685 4.5005 52.9785 5.5105 52.9785 6.7505V16.9905L50.7585 14.7705C50.4655 14.4775 49.9905 14.4775 49.6985 14.7705C49.4065 15.0635 49.4045 15.5385 49.6985 15.8305L53.1985 19.3305C53.3435 19.4775 53.5355 19.5505 53.7285 19.5505C53.9215 19.5505 54.1115 19.4785 54.2585 19.3305L57.7585 15.8305C58.0525 15.5385 58.0525 15.0635 57.7585 14.7705ZM47.0985 18.0505H41.2485C40.0085 18.0505 38.9985 17.0405 38.9985 15.8005V5.5605L41.2185 7.7805C41.3665 7.9275 41.5585 8.0005 41.7505 8.0005C41.9425 8.0005 42.1345 7.9275 42.2805 7.7805C42.5735 7.4875 42.5735 7.0125 42.2805 6.7205L38.7805 3.2205C38.4875 2.9265 38.0125 2.9265 37.7205 3.2205L34.2205 6.7205C33.9265 7.0125 33.9265 7.4875 34.2205 7.7805C34.5145 8.0735 34.9875 8.0735 35.2805 7.7805L37.5005 5.5605V15.8005C37.5005 17.8685 39.1835 19.5505 41.2505 19.5505H47.1005C47.5145 19.5505 47.8505 19.2145 47.8505 18.8005C47.8505 18.3865 47.5135 18.0505 47.1005 18.0505H47.0985Z" fill="black"/>
<path d="M82 21.638H81.986C79.403 21.59 71.95 14.856 71.95 8.478C71.95 5.414 74.475 2.724 77.353 2.724C79.643 2.724 81.183 4.304 81.999 5.454C82.813 4.306 84.353 2.724 86.644 2.724C89.524 2.724 92.048 5.414 92.048 8.479C92.048 14.855 84.594 21.589 82.011 21.636H82V21.638ZM77.354 4.225C75.274 4.225 73.451 6.213 73.451 8.48C73.451 14.22 80.485 20.076 82.001 20.138C83.519 20.076 90.551 14.221 90.551 8.48C90.551 6.213 88.728 4.225 86.648 4.225C84.12 4.225 82.708 7.161 82.696 7.19C82.466 7.752 81.54 7.752 81.309 7.19C81.295 7.16 79.884 4.225 77.355 4.225H77.354Z" fill="black"/>
<path d="M123.53 7.46999L118.53 2.46999C118.237 2.17699 117.762 2.17699 117.47 2.46999L112.47 7.46999C112.176 7.76299 112.176 8.23799 112.47 8.52999C112.764 8.82199 113.237 8.82399 113.53 8.52999L117.25 4.80999V15C117.25 15.414 117.586 15.75 118 15.75C118.414 15.75 118.75 15.414 118.75 15V4.80999L122.47 8.52999C122.616 8.67699 122.808 8.74999 123 8.74999C123.192 8.74999 123.384 8.67799 123.53 8.52999C123.823 8.23699 123.823 7.76299 123.53 7.46999Z" fill="black"/>
<path d="M125.708 21.944H110.292C109.028 21.944 108 20.916 108 19.652V14C108 13.586 108.336 13.25 108.75 13.25C109.164 13.25 109.5 13.586 109.5 14V19.652C109.5 20.089 109.855 20.444 110.292 20.444H125.708C126.145 20.444 126.5 20.089 126.5 19.652V14C126.5 13.586 126.836 13.25 127.25 13.25C127.664 13.25 128 13.586 128 14V19.652C128 20.916 126.972 21.944 125.708 21.944Z" fill="black"/>
<path d="M141.55 149.082C141.823 149.264 142.177 149.264 142.45 149.082L152 142.716V142.5C152 141.26 150.99 140.25 149.75 140.25H134.25C133.01 140.25 132 141.26 132 142.5V142.697L141.55 149.082Z" fill="black"/>
<path d="M143.26 150.295C142.877 150.55 142.44 150.677 142 150.677C141.56 150.677 141.123 150.55 140.74 150.294L132 144.452V156.122C132 157.362 133.01 158.372 134.25 158.372H149.75C150.99 158.372 152 157.362 152 156.122V144.47L143.26 150.293V150.295Z" fill="black"/>
<path d="M190.53 115.47L186.87 111.81C188.195 110.24 189 108.214 189 106C189 101.03 184.97 97 180 97C175.03 97 171 101.03 171 106C171 110.97 175.03 115 180 115C182.215 115 184.24 114.196 185.808 112.87L189.468 116.53C189.615 116.676 189.808 116.75 189.998 116.75C190.188 116.75 190.383 116.677 190.528 116.53C190.823 116.237 190.823 115.763 190.53 115.47ZM172.5 106C172.5 101.865 175.865 98.5 180 98.5C184.135 98.5 187.5 101.865 187.5 106C187.5 110.135 184.135 113.5 180 113.5C175.865 113.5 172.5 110.135 172.5 106Z" fill="white"/>
<path d="M218 105.21C215.91 105.21 214.21 106.91 214.21 109C214.21 111.09 215.91 112.79 218 112.79C220.09 112.79 221.79 111.09 221.79 109C221.79 106.91 220.09 105.21 218 105.21ZM218 111.29C216.738 111.29 215.71 110.264 215.71 109C215.71 107.736 216.74 106.71 218 106.71C219.26 106.71 220.29 107.736 220.29 109C220.29 110.264 219.262 111.29 218 111.29Z" fill="white"/>
<path d="M218.36 119.375H217.638C216.455 119.375 215.484 118.487 215.376 117.311L215.362 117.164C215.337 116.877 215.155 116.631 214.89 116.52C214.604 116.4 214.308 116.455 214.092 116.635L213.976 116.732C213.108 117.457 211.723 117.395 210.916 116.592L210.406 116.082C209.57 115.242 209.51 113.928 210.266 113.022L210.364 112.904C210.55 112.682 210.594 112.381 210.486 112.117C210.376 111.845 210.128 111.663 209.84 111.637L209.69 111.623C208.51 111.516 207.623 110.543 207.623 109.361V108.639C207.623 107.456 208.511 106.485 209.687 106.377L209.843 106.363C210.128 106.338 210.373 106.156 210.485 105.89C210.595 105.62 210.55 105.317 210.365 105.095L210.271 104.979C209.514 104.071 209.573 102.756 210.408 101.919L210.92 101.407C211.724 100.603 213.108 100.542 213.98 101.267L214.096 101.365C214.314 101.549 214.624 101.595 214.886 101.487C215.156 101.375 215.338 101.129 215.363 100.844L215.377 100.691C215.484 99.511 216.457 98.625 217.639 98.625H218.361C219.544 98.625 220.515 99.513 220.623 100.689L220.637 100.845C220.662 101.13 220.843 101.375 221.109 101.485C221.386 101.602 221.689 101.547 221.903 101.368L222.023 101.266C222.89 100.543 224.277 100.604 225.083 101.406L225.593 101.918C226.429 102.756 226.489 104.071 225.733 104.978L225.633 105.096C225.445 105.316 225.399 105.618 225.51 105.884C225.622 106.154 225.87 106.334 226.156 106.362L226.308 106.376C227.488 106.483 228.375 107.456 228.375 108.638V109.361C228.375 110.544 227.487 111.515 226.311 111.623L226.156 111.637C225.872 111.661 225.626 111.842 225.516 112.107C225.403 112.379 225.449 112.681 225.633 112.902L225.733 113.022C226.489 113.927 226.429 115.242 225.593 116.082L225.083 116.592C224.276 117.396 222.893 117.456 222.023 116.732L221.908 116.636C221.691 116.453 221.378 116.406 221.118 116.514C220.845 116.628 220.663 116.874 220.638 117.16L220.624 117.31C220.517 118.483 219.544 119.37 218.362 119.37L218.36 119.375ZM214.587 114.955C214.887 114.955 215.18 115.015 215.457 115.13C216.247 115.458 216.781 116.184 216.857 117.026L216.871 117.173C216.908 117.573 217.238 117.873 217.641 117.873H218.363C218.763 117.873 219.093 117.573 219.131 117.173L219.145 117.025C219.221 116.183 219.755 115.458 220.537 115.133C221.33 114.803 222.233 114.951 222.87 115.483L222.983 115.577C223.161 115.725 223.349 115.757 223.476 115.757C223.682 115.757 223.876 115.677 224.022 115.53L224.532 115.02C224.816 114.736 224.837 114.29 224.58 113.982L224.48 113.862C223.938 113.212 223.803 112.322 224.128 111.539C224.454 110.749 225.18 110.219 226.022 110.142L226.177 110.128C226.574 110.091 226.877 109.761 226.877 109.358V108.636C226.877 108.236 226.574 107.906 226.175 107.868L226.023 107.854C225.177 107.776 224.453 107.244 224.128 106.461C223.802 105.673 223.938 104.783 224.481 104.134L224.581 104.016C224.838 103.706 224.817 103.26 224.533 102.976L224.023 102.466C223.877 102.319 223.683 102.239 223.477 102.239C223.35 102.239 223.162 102.271 222.985 102.419L222.865 102.519C222.231 103.047 221.315 103.189 220.543 102.873C219.755 102.546 219.223 101.821 219.146 100.977L219.132 100.822C219.097 100.425 218.767 100.122 218.365 100.122H217.642C217.242 100.122 216.912 100.425 216.874 100.824L216.86 100.976C216.784 101.819 216.252 102.544 215.47 102.869C214.683 103.195 213.777 103.052 213.14 102.519L213.022 102.423C212.842 102.273 212.654 102.243 212.527 102.243C212.321 102.243 212.127 102.323 211.981 102.469L211.469 102.979C211.187 103.263 211.166 103.709 211.423 104.017L211.523 104.135C212.063 104.788 212.2 105.679 211.875 106.46C211.548 107.248 210.823 107.78 209.98 107.857L209.824 107.871C209.427 107.908 209.124 108.238 209.124 108.641V109.363C209.124 109.763 209.427 110.093 209.826 110.131L209.976 110.145C210.824 110.223 211.549 110.757 211.873 111.541C212.198 112.327 212.063 113.216 211.52 113.866L211.424 113.981C211.164 114.291 211.186 114.737 211.47 115.021L211.98 115.531C212.126 115.678 212.32 115.758 212.526 115.758C212.653 115.758 212.841 115.728 213.018 115.578L213.134 115.482C213.54 115.146 214.057 114.958 214.587 114.958V114.955Z" fill="white"/>
<defs>
<filter id="filter0_d" x="102" y="184" width="32" height="32" filterUnits="userSpaceOnUse" color-interpolation-filters="sRGB">
<feFlood flood-opacity="0" result="BackgroundImageFix"/>
<feColorMatrix in="SourceAlpha" type="matrix" values="0 0 0 0 0 0 0 0 0 0 0 0 0 0 0 0 0 0 127 0" result="hardAlpha"/>
<feOffset dy="4"/>
<feGaussianBlur stdDeviation="2"/>
<feComposite in2="hardAlpha" operator="out"/>
<feColorMatrix type="matrix" values="0 0 0 0 0 0 0 0 0 0 0 0 0 0 0 0 0 0 0.25 0"/>
<feBlend mode="normal" in2="BackgroundImageFix" result="effect1_dropShadow"/>
<feBlend mode="normal" in="SourceGraphic" in2="effect1_dropShadow" result="shape"/>
</filter>
<filter id="filter1_d" x="68" y="183" width="32" height="32" filterUnits="userSpaceOnUse" color-interpolation-filters="sRGB">
<feFlood flood-opacity="0" result="BackgroundImageFix"/>
<feColorMatrix in="SourceAlpha" type="matrix" values="0 0 0 0 0 0 0 0 0 0 0 0 0 0 0 0 0 0 127 0" result="hardAlpha"/>
<feOffset dy="4"/>
<feGaussianBlur stdDeviation="2"/>
<feComposite in2="hardAlpha" operator="out"/>
<feColorMatrix type="matrix" values="0 0 0 0 0 0 0 0 0 0 0 0 0 0 0 0 0 0 0.25 0"/>
<feBlend mode="normal" in2="BackgroundImageFix" result="effect1_dropShadow"/>
<feBlend mode="normal" in="SourceGraphic" in2="effect1_dropShadow" result="shape"/>
</filter>
<filter id="filter2_d" x="0" y="184" width="32" height="32" filterUnits="userSpaceOnUse" color-interpolation-filters="sRGB">
<feFlood flood-opacity="0" result="BackgroundImageFix"/>
<feColorMatrix in="SourceAlpha" type="matrix" values="0 0 0 0 0 0 0 0 0 0 0 0 0 0 0 0 0 0 127 0" result="hardAlpha"/>
<feOffset dy="4"/>
<feGaussianBlur stdDeviation="2"/>
<feComposite in2="hardAlpha" operator="out"/>
<feColorMatrix type="matrix" values="0 0 0 0 0 0 0 0 0 0 0 0 0 0 0 0 0 0 0.25 0"/>
<feBlend mode="normal" in2="BackgroundImageFix" result="effect1_dropShadow"/>
<feBlend mode="normal" in="SourceGraphic" in2="effect1_dropShadow" result="shape"/>
</filter>
<filter id="filter3_d" x="34" y="183" width="32" height="32" filterUnits="userSpaceOnUse" color-interpolation-filters="sRGB">
<feFlood flood-opacity="0" result="BackgroundImageFix"/>
<feColorMatrix in="SourceAlpha" type="matrix" values="0 0 0 0 0 0 0 0 0 0 0 0 0 0 0 0 0 0 127 0" result="hardAlpha"/>
<feOffset dy="4"/>
<feGaussianBlur stdDeviation="2"/>
<feComposite in2="hardAlpha" operator="out"/>
<feColorMatrix type="matrix" values="0 0 0 0 0 0 0 0 0 0 0 0 0 0 0 0 0 0 0.25 0"/>
<feBlend mode="normal" in2="BackgroundImageFix" result="effect1_dropShadow"/>
<feBlend mode="normal" in="SourceGraphic" in2="effect1_dropShadow" result="shape"/>
</filter>
<filter id="filter4_d" x="0" y="94" width="32" height="32" filterUnits="userSpaceOnUse" color-interpolation-filters="sRGB">
<feFlood flood-opacity="0" result="BackgroundImageFix"/>
<feColorMatrix in="SourceAlpha" type="matrix" values="0 0 0 0 0 0 0 0 0 0 0 0 0 0 0 0 0 0 127 0" result="hardAlpha"/>
<feOffset dy="4"/>
<feGaussianBlur stdDeviation="2"/>
<feComposite in2="hardAlpha" operator="out"/>
<feColorMatrix type="matrix" values="0 0 0 0 0 0 0 0 0 0 0 0 0 0 0 0 0 0 0.25 0"/>
<feBlend mode="normal" in2="BackgroundImageFix" result="effect1_dropShadow"/>
<feBlend mode="normal" in="SourceGraphic" in2="effect1_dropShadow" result="shape"/>
</filter>
</defs>
</svg>
