<svg width="12" height="20" viewBox="0 0 12 20" fill="none" xmlns="http://www.w3.org/2000/svg">
<path d="M5.89 20C5.476 20 5.14 19.664 5.14 19.25V0.75C5.14 0.336 5.476 0 5.89 0C6.304 0 6.64 0.336 6.64 0.75V19.25C6.64 19.664 6.304 20 5.89 20ZM11.03 20C10.615 20 10.28 19.664 10.28 19.25V5.89C10.28 5.475 10.615 5.14 11.03 5.14C11.445 5.14 11.78 5.475 11.78 5.89V19.25C11.78 19.664 11.443 20 11.03 20ZM0.75 20C0.337 20 0 19.664 0 19.25V8.973C0 8.559 0.337 8.223 0.75 8.223C1.163 8.223 1.5 8.559 1.5 8.973V19.25C1.5 19.664 1.165 20 0.75 20Z" fill="black"/>
</svg>
